Normalized EMG Linear Envelopes
nRows=54
nColumns=17

endheader
time	        VM	        VL	        RF	       GRA	        TA	   ADDLONG	   SEMIMEM	      BFLH	        GM	        GL	       TFL	   GLUTMAX	   GLUTMED	      PIRI	    OBTINT	        QF	
1.58	  0.014925	  0.011019	  0.050586	  0.155482	  0.138462	  0.080238	  0.014522	  0.035146	  0.010564	  0.013866	  0.032458	  0.015767	  0.107586	  0.609986	  1.080659	  0.107904	
1.5805	  0.014749	  0.010833	  0.049575	  0.154128	  0.137806	  0.079469	  0.014608	  0.034785	  0.010400	  0.013765	  0.031627	  0.016106	  0.108649	  0.614336	  1.084839	  0.108744	
1.581	  0.014574	  0.010648	  0.048576	  0.152772	  0.137140	  0.078701	  0.014718	  0.034436	  0.010240	  0.013665	  0.030810	  0.016457	  0.109700	  0.618608	  1.089109	  0.109594	
1.5815	  0.014400	  0.010464	  0.047590	  0.151416	  0.136464	  0.077935	  0.014850	  0.034100	  0.010082	  0.013566	  0.030007	  0.016818	  0.110740	  0.622798	  1.093466	  0.110455	
1.582	  0.014226	  0.010283	  0.046616	  0.150060	  0.135777	  0.077169	  0.015007	  0.033778	  0.009929	  0.013467	  0.029218	  0.017190	  0.111767	  0.626906	  1.097907	  0.111326	
1.5825	  0.014053	  0.010103	  0.045656	  0.148705	  0.135080	  0.076405	  0.015189	  0.033470	  0.009778	  0.013369	  0.028444	  0.017574	  0.112780	  0.630930	  1.102431	  0.112207	
1.583	  0.013881	  0.009925	  0.044708	  0.147352	  0.134372	  0.075643	  0.015396	  0.033178	  0.009631	  0.013272	  0.027684	  0.017969	  0.113779	  0.634869	  1.107035	  0.113099	
1.5835	  0.013709	  0.009749	  0.043773	  0.146002	  0.133653	  0.074883	  0.015629	  0.032901	  0.009488	  0.013176	  0.026939	  0.018375	  0.114763	  0.638720	  1.111715	  0.114002	
1.584	  0.013538	  0.009575	  0.042851	  0.144657	  0.132925	  0.074126	  0.015888	  0.032641	  0.009348	  0.013080	  0.026208	  0.018792	  0.115732	  0.642483	  1.116469	  0.114916	
1.5845	  0.013369	  0.009403	  0.041941	  0.143317	  0.132186	  0.073370	  0.016174	  0.032397	  0.009212	  0.012985	  0.025492	  0.019221	  0.116684	  0.646156	  1.121293	  0.115840	
1.585	  0.013200	  0.009233	  0.041044	  0.141983	  0.131437	  0.072618	  0.016489	  0.032171	  0.009079	  0.012890	  0.024790	  0.019662	  0.117620	  0.649737	  1.126184	  0.116775	
1.5855	  0.013032	  0.009065	  0.040160	  0.140656	  0.130679	  0.071868	  0.016832	  0.031963	  0.008951	  0.012796	  0.024103	  0.020114	  0.118539	  0.653223	  1.131138	  0.117722	
1.586	  0.012864	  0.008898	  0.039288	  0.139336	  0.129911	  0.071121	  0.017203	  0.031773	  0.008826	  0.012703	  0.023429	  0.020579	  0.119440	  0.656613	  1.136152	  0.118679	
1.5865	  0.012698	  0.008734	  0.038429	  0.138025	  0.129134	  0.070378	  0.017605	  0.031603	  0.008705	  0.012611	  0.022771	  0.021055	  0.120324	  0.659904	  1.141220	  0.119648	
1.587	  0.012533	  0.008571	  0.037582	  0.136723	  0.128348	  0.069638	  0.018037	  0.031452	  0.008589	  0.012519	  0.022126	  0.021542	  0.121189	  0.663095	  1.146339	  0.120627	
1.5875	  0.012369	  0.008411	  0.036747	  0.135430	  0.127552	  0.068903	  0.018500	  0.031322	  0.008477	  0.012428	  0.021496	  0.022042	  0.122036	  0.666182	  1.151505	  0.121617	
1.588	  0.012206	  0.008253	  0.035925	  0.134148	  0.126747	  0.068171	  0.018994	  0.031212	  0.008370	  0.012338	  0.020881	  0.022554	  0.122865	  0.669164	  1.156712	  0.122619	
1.5885	  0.012043	  0.008096	  0.035115	  0.132878	  0.125933	  0.067444	  0.019520	  0.031124	  0.008267	  0.012248	  0.020279	  0.023078	  0.123674	  0.672037	  1.161955	  0.123631	
1.589	  0.011882	  0.007942	  0.034318	  0.131620	  0.125110	  0.066721	  0.020080	  0.031058	  0.008169	  0.012159	  0.019692	  0.023614	  0.124464	  0.674801	  1.167229	  0.124653	
1.5895	  0.011722	  0.007789	  0.033532	  0.130375	  0.124279	  0.066003	  0.020673	  0.031015	  0.008077	  0.012072	  0.019119	  0.024163	  0.125235	  0.677453	  1.172530	  0.125687	
1.59	  0.011563	  0.007639	  0.032758	  0.129143	  0.123438	  0.065291	  0.021299	  0.030994	  0.007990	  0.011984	  0.018560	  0.024724	  0.125986	  0.679991	  1.177849	  0.126731	
1.5905	  0.011405	  0.007490	  0.031997	  0.127927	  0.122588	  0.064583	  0.021961	  0.030997	  0.007908	  0.011898	  0.018015	  0.025298	  0.126716	  0.682415	  1.183182	  0.127785	
1.591	  0.011248	  0.007344	  0.031247	  0.126725	  0.121729	  0.063882	  0.022658	  0.031025	  0.007833	  0.011813	  0.017483	  0.025884	  0.127427	  0.684721	  1.188523	  0.128851	
1.5915	  0.011092	  0.007199	  0.030509	  0.125539	  0.120861	  0.063186	  0.023391	  0.031077	  0.007763	  0.011729	  0.016966	  0.026483	  0.128117	  0.686910	  1.193863	  0.129927	
1.592	  0.010938	  0.007057	  0.029783	  0.124371	  0.119984	  0.062496	  0.024161	  0.031153	  0.007700	  0.011646	  0.016463	  0.027095	  0.128787	  0.688980	  1.199196	  0.131013	
1.5925	  0.010784	  0.006916	  0.029069	  0.123219	  0.119098	  0.061812	  0.024968	  0.031256	  0.007643	  0.011563	  0.015973	  0.027720	  0.129436	  0.690931	  1.204514	  0.132111	
1.593	  0.010632	  0.006778	  0.028366	  0.122086	  0.118202	  0.061134	  0.025812	  0.031385	  0.007593	  0.011482	  0.015497	  0.028357	  0.130065	  0.692760	  1.209811	  0.133218	
1.5935	  0.010481	  0.006641	  0.027675	  0.120972	  0.117297	  0.060463	  0.026696	  0.031540	  0.007551	  0.011402	  0.015034	  0.029008	  0.130675	  0.694469	  1.215077	  0.134336	
1.594	  0.010331	  0.006507	  0.026996	  0.119877	  0.116383	  0.059799	  0.027618	  0.031723	  0.007515	  0.011323	  0.014585	  0.029673	  0.131265	  0.696056	  1.220305	  0.135464	
1.5945	  0.010182	  0.006374	  0.026328	  0.118802	  0.115460	  0.059142	  0.028581	  0.031933	  0.007488	  0.011246	  0.014150	  0.030350	  0.131837	  0.697520	  1.225486	  0.136603	
1.595	  0.010035	  0.006243	  0.025672	  0.117748	  0.114527	  0.058491	  0.029583	  0.032171	  0.007468	  0.011169	  0.013727	  0.031041	  0.132390	  0.698861	  1.230611	  0.137751	
1.5955	  0.009888	  0.006114	  0.025027	  0.116715	  0.113586	  0.057848	  0.030627	  0.032438	  0.007456	  0.011094	  0.013318	  0.031745	  0.132926	  0.700077	  1.235671	  0.138909	
1.596	  0.009743	  0.005988	  0.024393	  0.115704	  0.112635	  0.057212	  0.031713	  0.032734	  0.007453	  0.011020	  0.012922	  0.032463	  0.133446	  0.701168	  1.240658	  0.140077	
1.5965	  0.009599	  0.005862	  0.023771	  0.114715	  0.111677	  0.056584	  0.032841	  0.033059	  0.007458	  0.010948	  0.012539	  0.033194	  0.133949	  0.702131	  1.245562	  0.141255	
1.597	  0.009456	  0.005739	  0.023159	  0.113749	  0.110710	  0.055963	  0.034012	  0.033415	  0.007473	  0.010877	  0.012169	  0.033939	  0.134437	  0.702967	  1.250374	  0.142441	
1.5975	  0.009315	  0.005618	  0.022559	  0.112807	  0.109735	  0.055351	  0.035226	  0.033800	  0.007496	  0.010807	  0.011811	  0.034698	  0.134910	  0.703673	  1.255085	  0.143637	
1.598	  0.009174	  0.005498	  0.021970	  0.111890	  0.108753	  0.054747	  0.036484	  0.034217	  0.007530	  0.010738	  0.011467	  0.035470	  0.135369	  0.704248	  1.259685	  0.144841	
1.5985	  0.009035	  0.005381	  0.021392	  0.110997	  0.107764	  0.054150	  0.037788	  0.034665	  0.007573	  0.010672	  0.011134	  0.036256	  0.135814	  0.704690	  1.264166	  0.146053	
1.599	  0.008897	  0.005265	  0.020825	  0.110129	  0.106768	  0.053562	  0.039136	  0.035145	  0.007626	  0.010606	  0.010815	  0.037056	  0.136246	  0.705000	  1.268518	  0.147273	
1.5995	  0.008761	  0.005150	  0.020268	  0.109287	  0.105765	  0.052983	  0.040531	  0.035656	  0.007689	  0.010542	  0.010508	  0.037869	  0.136666	  0.705175	  1.272733	  0.148501	
1.6	  0.008625	  0.005038	  0.019722	  0.108472	  0.104756	  0.052412	  0.041972	  0.036201	  0.007764	  0.010480	  0.010213	  0.038696	  0.137074	  0.705216	  1.276803	  0.149736	
1.6005	  0.008491	  0.004927	  0.019187	  0.107683	  0.103742	  0.051850	  0.043459	  0.036778	  0.007849	  0.010419	  0.009930	  0.039537	  0.137471	  0.705121	  1.280720	  0.150978	
1.601	  0.008358	  0.004818	  0.018662	  0.106920	  0.102721	  0.051296	  0.044995	  0.037389	  0.007945	  0.010361	  0.009659	  0.040392	  0.137858	  0.704892	  1.284476	  0.152226	
1.6015	  0.008226	  0.004710	  0.018148	  0.106185	  0.101695	  0.050752	  0.046579	  0.038033	  0.008053	  0.010303	  0.009400	  0.041261	  0.138235	  0.704527	  1.288066	  0.153481	
1.602	  0.008096	  0.004604	  0.017643	  0.105478	  0.100664	  0.050216	  0.048211	  0.038712	  0.008173	  0.010248	  0.009153	  0.042144	  0.138602	  0.704028	  1.291482	  0.154741	
1.6025	  0.007967	  0.004500	  0.017149	  0.104798	  0.099628	  0.049688	  0.049893	  0.039425	  0.008305	  0.010194	  0.008917	  0.043040	  0.138961	  0.703396	  1.294720	  0.156007	
1.603	  0.007839	  0.004397	  0.016665	  0.104146	  0.098588	  0.049170	  0.051624	  0.040172	  0.008449	  0.010142	  0.008693	  0.043950	  0.139311	  0.702631	  1.297774	  0.157278	
1.6035	  0.007712	  0.004295	  0.016191	  0.103523	  0.097544	  0.048660	  0.053406	  0.040955	  0.008606	  0.010092	  0.008481	  0.044874	  0.139653	  0.701736	  1.300642	  0.158553	
1.604	  0.007587	  0.004195	  0.015727	  0.102928	  0.096498	  0.048160	  0.055239	  0.041774	  0.008776	  0.010043	  0.008280	  0.045811	  0.139987	  0.700710	  1.303320	  0.159832	
1.6045	  0.007463	  0.004097	  0.015272	  0.102362	  0.095448	  0.047668	  0.057123	  0.042628	  0.008959	  0.009997	  0.008090	  0.046762	  0.140313	  0.699555	  1.305805	  0.161116	
1.605	  0.007340	  0.004000	  0.014828	  0.101826	  0.094396	  0.047184	  0.059058	  0.043518	  0.009155	  0.009952	  0.007911	  0.047726	  0.140633	  0.698273	  1.308096	  0.162403	
1.6055	  0.007218	  0.003904	  0.014392	  0.101318	  0.093342	  0.046710	  0.061047	  0.044445	  0.009365	  0.009909	  0.007743	  0.048704	  0.140945	  0.696864	  1.310191	  0.163694	
1.606	  0.007098	  0.003809	  0.013967	  0.100839	  0.092287	  0.046244	  0.063088	  0.045408	  0.009590	  0.009869	  0.007585	  0.049695	  0.141251	  0.695330	  1.312090	  0.164988	
1.6065	  0.006979	  0.003716	  0.013550	  0.100390	  0.091232	  0.045787	  0.065182	  0.046408	  0.009828	  0.009830	  0.007439	  0.050699	  0.141550	  0.693672	  1.313796	  0.166286	
